<?xml version="1.0" encoding="UTF-8"?><svg id="Layer_1" xmlns="http://www.w3.org/2000/svg" viewBox="0 0 24 24"><defs><style>.cls-1{fill:#231f20;fill-rule:evenodd;stroke-width:0px;}.cls-2{fill:none;stroke:#e6e7e8;stroke-miterlimit:10;stroke-width:.25px;}</style></defs><path class="cls-1" d="m12.79,15.14c.42,0,.77-.33.77-.76s-.35-.76-.77-.76-.77.34-.77.76.35.76.77.76h0Zm1.4.11c-.45.62-1.05.69-1.69.32-.04-.03-.23-.14-.28-.16-1.03-.6-2.06-.37-2.75.59-.29.4.39.79.67.39.36-.5.81-.65,1.31-.49-.25.44-.48.87-.79,1.48-.32.62-1,1.1-1.67.73-.48-.29-.9.4-.44.67.92.52,1.98.2,2.52-.47.01,0,.04.01.06.01.45.16,1.03.56,1.21.7.17.14.48.87.65,1.25.23.44.93.13.71-.33-.2-.42-.55-1.25-.81-1.46-.22-.16-.64-.47-.99-.66.25-.46.49-.9.76-1.35.83.24,1.63-.04,2.2-.83.29-.4-.38-.79-.67-.39h0Z"/><path class="cls-1" d="m4.18,6.15l1.64.2c.05.15.35.86.4,1.01h0c-.49.22-.27.13-.75.37-.05.02-.35.29-.18.29.22,0,.44.02.64.07.42.11.79.27,1.15.44.33.15.64.27.93.37.06,0-.31-.27-.27-.27-.35-.73-.93-2.45-1.11-2.89-.09-.2-.22-.27-.4-.31l-1.94-.24c-.26-.04-.51.15-.53.42-.04.26.15.51.42.55h0Zm4.06,3.03c-.99,0-1.85.66-3.45.66s-2.28-.66-2.28-.66c0,0,.73,1.32,2.5,1.32,1.59,0,2.54-.66,3.64-.66,1.32,0,1.77.66,1.77.66,0,0-.69-1.32-2.17-1.32h0Zm1.7-2.03c0-.6-.48-1.08-1.08-1.08s-1.06.47-1.06,1.08.48,1.06,1.06,1.06,1.08-.48,1.08-1.06h0Z"/><path class="cls-1" d="m18.27,5.63c.31,0,.57-.26.57-.57s-.26-.57-.57-.57-.57.26-.57.57.26.57.57.57h0Zm-1.4,3.55c0-.87-.7-1.55-1.55-1.55s-1.55.69-1.55,1.55.7,1.55,1.55,1.55,1.55-.7,1.55-1.55h0Zm-1.55-1.52c.21,0,.4.05.58.12.18.08.35.19.48.34.14.13.26.3.34.48.06.18.12.38.12.58s-.05.4-.12.57c-.08.19-.19.35-.34.49-.13.14-.3.25-.48.32-.18.08-.38.12-.58.12s-.4-.04-.57-.12c-.19-.08-.35-.18-.49-.32-.14-.14-.25-.3-.32-.49-.08-.17-.12-.36-.12-.57s.04-.4.12-.58c.08-.18.18-.35.32-.48.14-.14.3-.26.49-.34.17-.06.36-.12.57-.12h0Zm.85.66c-.12-.1-.25-.19-.39-.26-.14-.05-.3-.09-.47-.09-.16,0-.31.04-.45.09-.16.07-.28.16-.39.26-.12.12-.21.25-.27.39-.05.14-.09.3-.09.47,0,.16.04.31.09.45.06.16.16.28.27.39.21.22.52.35.84.35.17,0,.32-.03.47-.09.14-.05.27-.14.39-.26.1-.1.19-.23.26-.39.05-.14.09-.3.09-.45,0-.17-.04-.32-.09-.47-.06-.14-.16-.27-.26-.39h0Zm3.61,2.41c.85,0,1.55-.7,1.55-1.55s-.7-1.55-1.55-1.55-1.55.69-1.55,1.55.69,1.55,1.55,1.55h0Zm0-3.07c.19,0,.39.05.57.12.18.08.35.19.49.34.14.13.25.3.32.48.08.18.12.38.12.58s-.04.4-.12.57c-.08.19-.18.35-.32.49s-.31.25-.49.32c-.18.08-.38.12-.57.12-.21,0-.4-.04-.58-.12-.18-.08-.35-.18-.49-.32-.13-.14-.25-.3-.32-.49-.08-.17-.12-.36-.12-.57s.04-.4.12-.58c.08-.18.19-.35.32-.48.14-.14.31-.26.49-.34.18-.06.38-.12.58-.12h0Zm.84.66c-.1-.1-.25-.19-.39-.26-.14-.05-.3-.09-.45-.09-.17,0-.32.04-.47.09-.14.07-.27.16-.39.26-.1.12-.19.25-.26.39-.06.14-.09.3-.09.47,0,.16.03.31.09.45.07.16.16.28.26.39.22.22.52.35.85.35.16,0,.31-.03.45-.08.14-.06.28-.16.39-.27.12-.1.21-.23.26-.39.06-.14.09-.3.09-.45,0-.17-.03-.32-.09-.47-.05-.14-.14-.27-.26-.39h0Zm-2.58-1.45c.06.09.16.14.25.13h1.1c.34,0,.34-.44,0-.44h-.96l-.62-.98s-.13-.22-.39-.22c0,0-.21-.03-.35.14l-1.2,1.22c-.08.08-.13.19-.13.31,0,.18.1.34.25.41l1.23.69v.14c0,.18.14.32.32.32s.34-.14.34-.32v-.47s.04-.25-.25-.39l-.71-.38.76-.75.36.58Z"/><path class="cls-2" d="m12,5.96c-.91-2.03-2.94-3.45-5.31-3.45C3.48,2.51.88,5.11.88,8.32s2.57,5.78,5.76,5.81c-.33.73-.51,1.53-.51,2.38,0,3.21,2.6,5.81,5.81,5.81s5.81-2.6,5.81-5.81c0-.85-.19-1.65-.51-2.38.02,0,.05,0,.07,0,3.21,0,5.81-2.6,5.81-5.81s-2.6-5.81-5.81-5.81c-2.37,0-4.4,1.42-5.31,3.45Z"/></svg>